<svg xmlns="http://www.w3.org/2000/svg" viewBox="0 0 48 48"><title>app</title><g class="nc-icon-wrapper"><path fill="#458BC4" d="M44.561,10.172c-0.276-0.187-0.627-0.225-0.932-0.101l-20,8C23.249,18.224,23,18.591,23,19v26 c0,0.332,0.165,0.642,0.439,0.828C23.607,45.941,23.803,46,24,46c0.126,0,0.252-0.023,0.371-0.071l20-8 C44.751,37.776,45,37.409,45,37V11C45,10.668,44.835,10.358,44.561,10.172z"/> <path fill="#43A6DD" d="M24,17.923L4.371,10.071C4.065,9.95,3.715,9.986,3.439,10.172C3.165,10.358,3,10.668,3,11v26 c0,0.409,0.249,0.776,0.629,0.929l20,8C23.748,45.977,23.874,46,24,46V17.923z"/> <path fill="#BADEFC" d="M44.371,10.071l-20-8c-0.238-0.096-0.504-0.096-0.742,0l-20,8C3.249,10.224,3,10.591,3,11 s0.249,0.776,0.629,0.929l20,8C23.748,19.977,23.874,20,24,20s0.252-0.023,0.371-0.071l20-8C44.751,11.776,45,11.409,45,11 S44.751,10.224,44.371,10.071z"/></g></svg>